<svg width="139px" height="63px" viewBox="0 0 139 63" version="1.1" xmlns:xlink="http://www.w3.org/1999/xlink" xmlns="http://www.w3.org/2000/svg">
  <g id="Group">
    <path d="M0 1.02641e-14L132.443 8.0075L132.443 49.2143L0 57.2218L0 1.02641e-14Z" id="Rectangle" fill="#00BC8B" fill-rule="evenodd" stroke="none" />
    <path d="M6.5566 5.77819L139 13.7857L139 54.9925L6.5566 63L6.5566 5.77819Z" id="Rectangle" fill="#FFFFFF" fill-rule="evenodd" stroke="none" />
    <g id="Everyday" fill="#00BC8B" transform="translate(21.55435 15.967407)">
      <path d="M2.10234 3.32L0.548437 12.68L6.27047 12.68L6.435 11.6745L1.84641 11.6745L2.37656 8.49359L6.59953 8.49359L6.76406 7.48813L2.54109 7.48813L3.07125 4.32547L7.58672 4.32547L7.75125 3.32L2.10234 3.32ZM35.9135 12.3806Q36.5122 12.8263 37.3943 12.8263Q38.0707 12.8263 38.5117 12.6Q38.9528 12.3738 39.2224 12.0836Q39.4921 11.7934 39.6429 11.6014L39.7709 11.6014L39.588 12.68L40.6301 12.68L42.184 3.32L41.1054 3.32L40.5295 6.77516L40.4381 6.77516Q40.3513 6.59234 40.1868 6.3067Q40.0222 6.02106 39.6589 5.79482Q39.2955 5.56859 38.61 5.56859Q37.7234 5.56859 36.9738 6.01191Q36.2243 6.45523 35.7101 7.26875Q35.196 8.08227 35.0086 9.18828Q34.8258 10.3034 35.0703 11.1192Q35.3148 11.935 35.9135 12.3806ZM23.9484 5.66L22.7784 12.68L23.857 12.68L24.5883 8.23766Q24.7117 7.52469 25.2898 7.05852Q25.868 6.59234 26.6358 6.59234Q26.8552 6.59234 27.0471 6.62205Q27.2391 6.65176 27.2939 6.66547L27.4767 5.56859Q27.3807 5.55488 27.2071 5.5526Q27.0334 5.55031 26.91 5.55031Q26.2793 5.55031 25.7171 5.87481Q25.155 6.1993 24.8808 6.72031L24.8077 6.72031L24.9905 5.66L23.9484 5.66ZM18.1898 12.8263Q17.1798 12.8263 16.5217 12.3761Q15.8636 11.9259 15.603 11.1147Q15.3425 10.3034 15.5208 9.22484Q15.699 8.14625 16.2292 7.32131Q16.7593 6.49637 17.55 6.03248Q18.3407 5.56859 19.2867 5.56859Q19.8352 5.56859 20.3425 5.75141Q20.8498 5.93422 21.22 6.34326Q21.5902 6.75231 21.7364 7.42414Q21.8827 8.09598 21.7181 9.07859L21.645 9.53563L16.54 9.53563Q16.3434 10.8245 16.8416 11.3409Q17.3398 11.8573 18.3544 11.8573Q19.0034 11.8573 19.4992 11.5831Q19.9951 11.3089 20.2922 10.7605L21.2794 11.053Q20.9 11.8482 20.082 12.3372Q19.2639 12.8263 18.1898 12.8263ZM44.7982 12.8445Q44.1309 12.8445 43.6282 12.5909Q43.1255 12.3372 42.8832 11.8551Q42.641 11.3729 42.7507 10.6873Q42.8558 10.0841 43.1575 9.70701Q43.4591 9.32996 43.891 9.11287Q44.3229 8.89578 44.8233 8.78838Q45.3238 8.68098 45.822 8.62156Q46.4709 8.5393 46.8777 8.49359Q47.2845 8.44789 47.4901 8.34277Q47.6958 8.23766 47.7415 7.98172L47.7415 7.94516Q47.8512 7.27332 47.5632 6.89627Q47.2753 6.51922 46.5349 6.51922Q45.7671 6.51922 45.2507 6.85742Q44.7342 7.19563 44.4874 7.57953L43.5368 7.21391Q43.9116 6.57406 44.4326 6.21529Q44.9536 5.85652 45.5249 5.71256Q46.0962 5.56859 46.6263 5.56859Q46.9645 5.56859 47.3896 5.64857Q47.8146 5.72856 48.1871 5.97535Q48.5596 6.22215 48.7492 6.72031Q48.9389 7.21848 48.8018 8.05484L48.034 12.68L46.9554 12.68L47.1199 11.7294L47.0651 11.7294Q46.9188 11.9579 46.6195 12.2184Q46.3201 12.4789 45.8654 12.6617Q45.4106 12.8445 44.7982 12.8445ZM11.243 12.68L15.0089 5.66L13.7932 5.66L10.923 11.2541L10.8499 11.2541L9.84445 5.66L8.72016 5.66L10.1461 12.68L11.243 12.68ZM27.8515 15.3125Q27.5773 15.3125 27.3693 15.2691Q27.1614 15.2257 27.0837 15.1845L27.5224 14.2339Q27.8972 14.3345 28.192 14.2956Q28.4868 14.2568 28.7541 14.0077Q29.0215 13.7586 29.314 13.2284L29.6156 12.68L28.208 5.66L29.3323 5.66L30.3377 11.2723L30.4109 11.2723L33.281 5.66L34.4967 5.66L30.1915 13.6946Q29.739 14.5355 29.1517 14.924Q28.5645 15.3125 27.8515 15.3125ZM49.7913 15.2691Q49.9992 15.3125 50.2734 15.3125Q50.9864 15.3125 51.5737 14.924Q52.161 14.5355 52.6134 13.6946L56.9187 5.66L55.703 5.66L52.8328 11.2723L52.7597 11.2723L51.7542 5.66L50.6299 5.66L52.0376 12.68L51.7359 13.2284Q51.4434 13.7586 51.1761 14.0077Q50.9087 14.2568 50.6139 14.2956Q50.3191 14.3345 49.9444 14.2339L49.5056 15.1845Q49.5833 15.2257 49.7913 15.2691ZM16.6908 8.60328L20.6944 8.60328Q20.8498 7.71207 20.427 7.12479Q20.0043 6.5375 19.1222 6.5375Q18.5326 6.5375 18.0185 6.846Q17.5043 7.15449 17.1501 7.62981Q16.7959 8.10512 16.6908 8.60328ZM39.2955 11.1101Q38.6329 11.8573 37.6594 11.8573Q36.983 11.8573 36.5968 11.4986Q36.2106 11.1398 36.0918 10.5297Q35.9729 9.91953 36.0963 9.17Q36.2197 8.42961 36.5351 7.83318Q36.8504 7.23676 37.3532 6.88713Q37.8559 6.5375 38.5369 6.5375Q39.5286 6.5375 39.94 7.26418Q40.3513 7.99086 40.1548 9.17Q39.9582 10.3629 39.2955 11.1101ZM45.109 11.8756Q45.7488 11.8756 46.231 11.6243Q46.7132 11.3729 47.0079 10.9753Q47.3027 10.5777 47.3759 10.1389L47.5404 9.15172Q47.4581 9.23398 47.2159 9.30025Q46.9737 9.36652 46.6697 9.41451Q46.3658 9.4625 46.0802 9.49678Q45.7945 9.53106 45.6209 9.55391Q45.1912 9.60875 44.8051 9.72986Q44.4189 9.85098 44.1561 10.0909Q43.8933 10.3309 43.8293 10.7422Q43.7333 11.3043 44.0989 11.59Q44.4646 11.8756 45.109 11.8756Z" />
    </g>
    <g id="COUNTER" fill="#00BC8B" transform="translate(18.73336 29.013582)">
      <path d="M15.1145 10.18L11.1617 10.18Q11.2399 9.17758 10.76 8.56973Q10.2802 7.96187 9.19953 7.96187Q7.63547 7.96187 6.59395 9.10293Q5.55242 10.244 5.21828 12.2275Q4.91258 14.147 5.48488 15.0926Q6.05719 16.0381 7.40797 16.0381Q8.59523 16.0381 9.39859 15.4871Q10.202 14.9362 10.5077 14.0191L14.4889 14.0191Q14.2614 14.9433 13.6784 15.9066Q13.0955 16.8699 12.1713 17.6768Q11.247 18.4838 9.99578 18.9814Q8.74453 19.4791 7.18047 19.4791Q5.13297 19.4791 3.65066 18.5833Q2.16836 17.6875 1.50363 15.967Q0.838906 14.2466 1.23703 11.7725Q1.63516 9.38375 2.8082 7.76992Q3.98125 6.15609 5.65906 5.33852Q7.33688 4.52094 9.22797 4.52094Q11.1333 4.52094 12.5018 5.18211Q13.8704 5.84328 14.5636 7.10875Q15.2567 8.37422 15.1145 10.18ZM30.6841 12.2559Q30.2859 14.6305 29.1058 16.2372Q27.9256 17.8439 26.2407 18.6615Q24.5558 19.4791 22.6362 19.4791Q20.5888 19.4791 19.0816 18.5904Q17.5744 17.7017 16.8848 15.9884Q16.1952 14.275 16.6075 11.8009Q16.9914 9.42641 18.1716 7.80547Q19.3517 6.18453 21.0509 5.35273Q22.75 4.52094 24.6838 4.52094Q26.717 4.52094 28.2207 5.41672Q29.7243 6.3125 30.4104 8.04008Q31.0964 9.76766 30.6841 12.2559ZM46.3247 4.72L42.3719 4.72L40.8789 13.7063Q40.7225 14.7158 39.9547 15.377Q39.1869 16.0381 38.1631 16.0381Q37.1536 16.0381 36.6062 15.377Q36.0588 14.7158 36.2152 13.7063L37.7081 4.72L33.7553 4.72L32.2055 14.0475Q31.9353 15.7111 32.5218 16.9232Q33.1084 18.1354 34.4094 18.793Q35.7104 19.4506 37.5944 19.4506Q39.4641 19.4506 40.9927 18.793Q42.5212 18.1354 43.5129 16.9232Q44.5047 15.7111 44.7748 14.0475L46.3247 4.72ZM60.7994 4.72L58.3822 19.28L55.0834 19.28L51.1022 11.6303L51.0169 11.6303L49.7372 19.28L45.7844 19.28L48.2016 4.72L51.5572 4.72L55.4816 12.3413L55.5953 12.3413L56.8466 4.72L60.7994 4.72ZM62.2781 4.72L61.7378 7.905L66.1172 7.905L64.2403 19.28L68.1363 19.28L70.0131 7.905L74.3925 7.905L74.9328 4.72L62.2781 4.72ZM73.9944 19.28L76.4116 4.72L86.905 4.72L86.3647 7.905L79.8241 7.905L79.4259 10.4075L85.4263 10.4075L84.8859 13.5925L78.8856 13.5925L78.4875 16.095L84.9997 16.095L84.4594 19.28L73.9944 19.28ZM88.8672 4.72L86.45 19.28L90.4028 19.28L91.2062 14.4741L92.5712 14.4741L94.3272 19.28L98.6213 19.28L96.5667 13.8484Q97.825 13.2868 98.6533 12.2346Q99.4815 11.1824 99.7303 9.66813Q99.9863 8.11828 99.4957 7.00922Q99.0052 5.90016 97.889 5.31008Q96.7728 4.72 95.1519 4.72L88.8672 4.72ZM93.1044 11.4028L91.7181 11.4028L92.3081 7.87656L93.7016 7.87656Q94.7253 7.87656 95.2408 8.30313Q95.7562 8.72969 95.6069 9.66813Q95.4576 10.6066 94.8035 11.0047Q94.1495 11.4028 93.1044 11.4028ZM26.7028 11.8009Q27.0014 9.92406 26.4646 8.94297Q25.9279 7.96187 24.5416 7.96187Q22.9633 7.96187 21.936 9.09582Q20.9087 10.2298 20.5888 12.2559Q20.2475 14.1541 20.8305 15.0961Q21.4134 16.0381 22.7784 16.0381Q24.3354 16.0381 25.3485 14.9326Q26.3616 13.8271 26.7028 11.8009Z" />
    </g>
  </g>
</svg>
